<?xml version="1.0" encoding="UTF-8"?>
<svg id="Layer_1" data-name="Layer 1" xmlns="http://www.w3.org/2000/svg" viewBox="0 0 225.71 74.55">
  <defs>
    <style>
      .cls-1 {
        fill: #fe5eb6;
      }

      .cls-2 {
        fill: #383838;
      }
    </style>
  </defs>
  <g>
    <g>
      <path class="cls-2" d="M47.08,18.35c.27,0,6.01-.37,6.01-.37l1.25,22.82.78-22.82h5.15l-2.5,34.6-7.18,1.79s-3.78-36.01-3.51-36.01Z"/>
      <path class="cls-2" d="M73.03,41.69c-.26,0-5.79.24-5.79.24l-1.24-6.72-.71,6.72h-4.96l2.41-22.59,6.92-1.17s3.65,23.52,3.38,23.52ZM67.5,31.3l-1.09-7.13-1.32,7.33,2.41-.2Z"/>
      <path class="cls-2" d="M78.96,17.08l2.42,14.77,1.31-12.67,6.74-.44-3.01,26.26h-3.92l-3.61-12.82.91,14.18-6.7.07-1.51-29.1,7.37-.26Z"/>
      <path class="cls-2" d="M103.53,16.94l-.35,7.95-3.77.08-.97,14.22,2.8.16-.66,6.14-10.57-.12-.35-6.03h3.5l.82-14.65-3.42-.51,1.05-7.44,11.93.2Z"/>
      <path class="cls-2" d="M104.38,17.85l7.29-.35-2.45,21.6,5.17-.85s.5,7.13.2,7.13c-.27,0-10.18-.31-10.18-.31l-.03-27.22Z"/>
      <path class="cls-2" d="M117.78,18.08l7.29-.35-2.45,21.6,5.17-.85s.5,7.13.2,7.13c-.27,0-10.18-.31-10.18-.31l-.03-27.22Z"/>
      <path class="cls-2" d="M141.35,42.62c-.28,0-6.26.26-6.26.26l-1.34-7.26-.77,7.26h-5.37l2.6-24.4,7.48-1.26s3.94,25.4,3.66,25.4ZM135.37,31.41l-1.18-7.7-1.42,7.91,2.6-.22Z"/>
    </g>
    <g>
      <path class="cls-1" d="M154.5,37.09l6.46,18.51-7.45,2.09-3.57-15.67-.65,10.19-6.37-.42,1.06-34.36h7.28l-.36,14.32,4.59-10.33,5.92,2.91-6.91,12.77Z"/>
      <path class="cls-1" d="M172.44,17.23l-.36,8.07-3.84.08-.99,14.43,2.85.16-.67,6.23-10.78-.12-.36-6.11h3.57l.83-14.87-3.49-.52,1.07-7.55,12.16.2Z"/>
      <path class="cls-1" d="M171.06,21.23l8.69-.35-2.92,21.92,6.16-.87s.59,7.24.24,7.24c-.32,0-12.13-.32-12.13-.32l-.04-27.62Z"/>
      <path class="cls-1" d="M184.74,21.24l8.71-.36-2.93,21.98,6.18-.87s.59,7.26.24,7.26c-.32,0-12.15-.32-12.15-.32l-.04-27.7Z"/>
      <path class="cls-1" d="M221.95,37.16s3.65-.95,3.65-6.46.04-11.1-7.65-11.1c-3.88,0-6.18.12-6.18.12l-.54,12.04-7.46-.06.16-3.57,5.75.99.4-7.89-11.18.12-.32,10.27h-4.61l-.2,6.06,4.22.2-.16,8.68,10.31.32,1.11-5.71-5.87-.55.12-2.66,7.45.1-.41,9.13,5.83.36.59-8.6,2.42,11.14,6.34-2.3-3.77-10.62ZM217.67,32.22l.16-6.22s3.01,0,3.01,3.09c0,3.37-3.17,3.13-3.17,3.13Z"/>
    </g>
  </g>
  <g>
    <path class="cls-1" d="M50.74,66.78c-1.47.93-3.5,1.28-5.2,1.6-.87.19-1.62.33-1.84.83-.15.96,2.33,1.43,2.89,1.93,1.5,1.06-.6,1.62-1.66,1.77-.89.16-1.83.35-2.63.49-1.07.2-2.44.39-3.7.51-9.61,1.09-14.04-2.47-20.67-.39-1.23.38-2.46.81-3.86.97-1.31.14-2.59.03-3.69-.22-1.32-.32-4.12-1.17-3.1-2.3.91-1.02,3.48-1.01,4.13-1.58.2-.16.17-.41-.03-.58-1.16-.95-3.33-.41-4.74-.11-1.52.33-3.55.45-4.99.02-.63-.21-2.08-.71-1.53-1.51.88-1.37,7.94-.41,7.9-1.62-.4-.67-3.31-1.04-3.71-2v-.02c0-1.52,5.38-1.48,6.71-1.6,3.74-.12,6.92-.63,10.39-1.11,2.6,5.24,4.76,8.34,5.6,6.8.61-1.1,1.35-3.78,2.15-7.34,2.93.17,5.88.72,8.63.75,2.06.02,4.35-.17,6.35.36,1.69.46,2.36,1.23.26,1.58-.51.13-4.36.34-2.48.9,1.66.43,5.39.2,7.53.36.98.01,2.7.53,1.29,1.51Z"/>
    <g>
      <path class="cls-2" d="M24.73,54.77c-.18.26-.11.62.15.8,1.48,1,3.16,1.91,4.93,2.71-.22,1.07-.44,2.09-.65,3.04-.8,3.56-1.54,6.24-2.15,7.34-.84,1.54-3-1.56-5.6-6.8-.94-1.9-1.95-4.09-2.96-6.44,2.83-1.31,5.6-3.01,7.8-4.86.24-.2.28-.56.07-.81-.2-.24-.57-.27-.81-.07-2.09,1.76-4.77,3.4-7.51,4.67-.93-2.17-1.86-4.46-2.77-6.78,2.99-1.08,6.21-2.83,9-4.88,1.3.96,2.69,1.85,4.11,2.63-.47.34-.93.64-1.39.91-.27.16-.37.52-.2.79.1.18.29.28.49.28.1,0,.2-.02.29-.08.64-.37,1.29-.81,1.94-1.29.82.42,1.65.8,2.46,1.14-.62,3.49-1.25,6.94-1.88,10.04-1.63-.74-3.18-1.59-4.52-2.5-.27-.18-.62-.11-.8.16Z"/>
      <path class="cls-2" d="M35.91,22.26v.05s-.21,1.44-.57,3.83c-1.33,3.43-3.16,6.71-5.07,8.9-.2.24-.18.6.06.81.11.1.24.15.38.15.16,0,.32-.07.43-.2,1.26-1.44,2.47-3.3,3.53-5.35-.49,3.12-1.09,6.87-1.75,10.79-1.15,1.23-2.36,2.36-3.56,3.32-1.43-.77-2.85-1.65-4.16-2.6.83-.66,1.62-1.34,2.33-2.04.23-.22.23-.58.01-.81-.22-.23-.58-.23-.81-.01-.75.73-1.6,1.45-2.5,2.14-.9-.69-1.74-1.41-2.5-2.14-.23-.22-.59-.22-.81.01-.22.23-.22.59.01.81.72.7,1.5,1.38,2.34,2.04-2.65,1.9-5.68,3.53-8.45,4.54-1.59-4.1-3.08-8.25-4.31-11.95,1.05-.42,2.05-.87,2.99-1.36.28-.15.39-.5.24-.78-.15-.28-.5-.39-.78-.24-.87.46-1.82.89-2.81,1.28-.45-1.37-.85-2.67-1.21-3.87.41-.61.42-1.74,1.48-1.65.78.07.33,2.53,2.02,2.53,1.95,0,.84-2.4,2.27-2.34,1.24.06.77,2.47,2.79,2.54,1.49.04.45-3.57,2.66-4.74,1.87-.99,3.77,1.53,6.67,1.3,4.19-.33,7.18-2.3,9.08-4.96Z"/>
      <path class="cls-2" d="M32.13,45.9c.15-.88.31-1.77.45-2.65-.69.67-1.4,1.31-2.1,1.89.55.27,1.1.53,1.65.76Z"/>
    </g>
    <path class="cls-1" d="M17.5,33.6c-.7-.02-1.64,1.49-1.2,2.63.24.64.96,1.25,1.53,1.09.66-.18.84-1.29.77-1.97-.08-.76-.54-1.74-1.09-1.75Z"/>
    <path class="cls-1" d="M15.01,37.87c-.54-.01-1.26.83-.92,1.46.19.35.74.69,1.18.61.51-.1.64-.72.59-1.09-.06-.42-.42-.96-.84-.97Z"/>
    <path class="cls-1" d="M36.24,6.59C30.53-.81,16.48-1.55,9.52,2.24c-7.14,3.9-2.94,10.77-4.93,11.42-2.6.84-2.77,2.78-2.86,5.19-.15,4.03,1.69,6.81,3.63,6.29,1.3-.34,1,.62,1.11,2.66.13,2.47,1.12,2.19,1.88,2.14.28-.02.46-.16.59-.36.41-.61.42-1.74,1.48-1.65.78.07.33,2.53,2.02,2.53,1.95,0,.84-2.4,2.27-2.34,1.24.06.77,2.47,2.79,2.54,1.49.04.45-3.57,2.66-4.74,1.87-.99,3.77,1.53,6.67,1.3,4.19-.33,7.18-2.3,9.08-4.96.42-.58.78-1.2,1.09-1.84.16-.32.31-.65.44-.98,1.75-4.42,1.24-9.68-1.2-12.85ZM15.5,13.34c.18-.34.57-.61.87-.84.39-.3.71-.67,1.12-.95-.51-.5-1.05-1.02-1.72-1.39-.62-.36.03-.98.65-.6.14.08.86.62.97.71.12.1.74.72.86.82.46-.28.93-.58,1.43-.8.26-.14.54-.25.78-.41.37-.23.93.02.87.39-.05.26-.8.59-1.11.72-.2.08-1.13.63-1.33.74.11,0,1.81,2.26,1.89,2.56.07.25-.28.4-.47.4-.38.01-.52-.3-.72-.57-.49-.63-.99-1.25-1.45-1.91-.02,0-1.78,1.65-2.02,1.7-.27.05-.81-.21-.62-.57ZM6.73,12.4c.09-.21,1.81-1.79,1.99-1.79-.52-.51-1.04-1.02-1.71-1.39-.62-.36.04-.98.65-.6.14.08.86.62.97.72.12.09.74.71.85.81.47-.28.94-.57,1.44-.8.26-.13.54-.24.78-.4.37-.23.93.02.87.39-.05.26-.81.59-1.11.71-.2.09-1.13.64-1.33.74.03,0,1.86,2.22,1.88,2.57.02.29-.31.42-.55.4-.35-.04-.48-.36-.67-.61-.47-.63-.97-1.23-1.42-1.88-.02,0-1.79,1.66-2.03,1.7-.3.04-.76-.21-.61-.57ZM13.55,22.65c-.37.12-.96-1.52-2.36-1.64-1.18-.1-1.89.96-2.23.76-.2-.11-.19-.6-.04-1.24.38-1.61,1.66-4.18,2.79-4.1.81.06,1.43,1.47,1.77,2.94.36,1.56.41,3.17.07,3.28Z"/>
  </g>
</svg>