<svg xmlns="http://www.w3.org/2000/svg" viewBox="0 0 1200 800">
  <!-- Randomly distributed squares, ~75px, light orange only. Units: 75 units ≈ 75px when background-size matches. -->
  <rect x="12" y="8" width="75" height="75" fill="hsl(30,70%,92%)"/>
  <rect x="210" y="140" width="75" height="75" fill="hsl(28,68%,88%)"/>
  <rect x="380" y="22" width="75" height="75" fill="hsl(32,72%,90%)"/>
  <rect x="520" y="310" width="75" height="75" fill="hsl(28,70%,85%)"/>
  <rect x="88" y="260" width="75" height="75" fill="hsl(30,65%,94%)"/>
  <rect x="650" y="95" width="75" height="75" fill="hsl(28,72%,86%)"/>
  <rect x="780" y="380" width="75" height="75" fill="hsl(29,68%,89%)"/>
  <rect x="310" y="480" width="75" height="75" fill="hsl(31,70%,91%)"/>
  <rect x="920" y="180" width="75" height="75" fill="hsl(28,66%,87%)"/>
  <rect x="45" y="420" width="75" height="75" fill="hsl(30,72%,93%)"/>
  <rect x="165" y="550" width="75" height="75" fill="hsl(29,68%,84%)"/>
  <rect x="440" y="620" width="75" height="75" fill="hsl(28,70%,90%)"/>
  <rect x="600" y="480" width="75" height="75" fill="hsl(32,65%,88%)"/>
  <rect x="1020" y="320" width="75" height="75" fill="hsl(30,72%,86%)"/>
  <rect x="250" y="340" width="75" height="75" fill="hsl(28,68%,93%)"/>
  <rect x="720" y="42" width="75" height="75" fill="hsl(29,70%,89%)"/>
  <rect x="890" y="520" width="75" height="75" fill="hsl(31,66%,91%)"/>
  <rect x="55" y="620" width="75" height="75" fill="hsl(28,72%,87%)"/>
  <rect x="1120" y="460" width="75" height="75" fill="hsl(30,68%,92%)"/>
  <rect x="135" y="185" width="75" height="75" fill="hsl(28,70%,94%)"/>
  <rect x="480" y="155" width="75" height="75" fill="hsl(32,65%,85%)"/>
  <rect x="820" y="240" width="75" height="75" fill="hsl(29,72%,88%)"/>
  <rect x="290" y="680" width="75" height="75" fill="hsl(28,68%,90%)"/>
  <rect x="950" y="42" width="75" height="75" fill="hsl(30,70%,93%)"/>
  <rect x="18" y="520" width="75" height="75" fill="hsl(31,66%,86%)"/>
  <rect x="560" y="380" width="75" height="75" fill="hsl(28,72%,91%)"/>
  <rect x="1080" y="620" width="75" height="75" fill="hsl(29,68%,87%)"/>
  <rect x="340" y="85" width="75" height="75" fill="hsl(30,70%,95%)"/>
  <rect x="680" y="280" width="75" height="75" fill="hsl(28,65%,89%)"/>
  <rect x="195" y="420" width="75" height="75" fill="hsl(32,72%,92%)"/>
  <rect x="410" y="450" width="75" height="75" fill="hsl(28,68%,84%)"/>
  <rect x="750" y="580" width="75" height="75" fill="hsl(29,70%,90%)"/>
  <rect x="102" y="340" width="75" height="75" fill="hsl(31,66%,88%)"/>
  <rect x="590" y="28" width="75" height="75" fill="hsl(30,72%,94%)"/>
  <rect x="980" y="400" width="75" height="75" fill="hsl(28,68%,86%)"/>
  <rect x="228" y="680" width="75" height="75" fill="hsl(28,70%,91%)"/>
  <rect x="870" y="120" width="75" height="75" fill="hsl(32,65%,93%)"/>
  <rect x="42" y="155" width="75" height="75" fill="hsl(29,72%,87%)"/>
  <rect x="510" y="540" width="75" height="75" fill="hsl(30,68%,89%)"/>
  <rect x="1150" y="280" width="75" height="75" fill="hsl(28,70%,92%)"/>
  <rect x="365" y="260" width="75" height="75" fill="hsl(31,66%,85%)"/>
  <rect x="640" y="620" width="75" height="75" fill="hsl(29,68%,94%)"/>
  <rect x="795" y="45" width="75" height="75" fill="hsl(28,72%,88%)"/>
  <rect x="155" y="28" width="75" height="75" fill="hsl(32,70%,90%)"/>
  <rect x="1050" y="550" width="75" height="75" fill="hsl(30,65%,91%)"/>
  <rect x="28" y="680" width="75" height="75" fill="hsl(29,72%,86%)"/>
  <rect x="470" y="28" width="75" height="75" fill="hsl(28,68%,93%)"/>
  <rect x="720" y="450" width="75" height="75" fill="hsl(31,70%,87%)"/>
  <rect x="920" y="680" width="75" height="75" fill="hsl(30,66%,89%)"/>
  <rect x="280" y="195" width="75" height="75" fill="hsl(28,72%,95%)"/>
  <rect x="610" y="185" width="75" height="75" fill="hsl(32,68%,84%)"/>
  <rect x="850" y="340" width="75" height="75" fill="hsl(29,70%,92%)"/>
  <rect x="118" y="580" width="75" height="75" fill="hsl(28,65%,88%)"/>
  <rect x="540" y="720" width="75" height="75" fill="hsl(31,72%,90%)"/>
  <rect x="1000" y="95" width="75" height="75" fill="hsl(30,68%,86%)"/>
  <rect x="185" y="480" width="75" height="75" fill="hsl(28,70%,93%)"/>
  <rect x="390" y="580" width="75" height="75" fill="hsl(32,66%,91%)"/>
  <rect x="660" y="350" width="75" height="75" fill="hsl(29,72%,87%)"/>
  <rect x="930" y="460" width="75" height="75" fill="hsl(28,68%,89%)"/>
  <rect x="75" y="720" width="75" height="75" fill="hsl(31,70%,94%)"/>
  <rect x="1125" y="120" width="75" height="75" fill="hsl(30,65%,85%)"/>
  <rect x="320" y="400" width="75" height="75" fill="hsl(28,72%,88%)"/>
  <rect x="760" y="720" width="75" height="75" fill="hsl(29,68%,92%)"/>
  <rect x="42" y="280" width="75" height="75" fill="hsl(32,70%,90%)"/>
  <rect x="520" y="95" width="75" height="75" fill="hsl(28,66%,86%)"/>
  <rect x="1080" y="380" width="75" height="75" fill="hsl(31,72%,93%)"/>
  <rect x="245" y="620" width="75" height="75" fill="hsl(30,68%,87%)"/>
  <rect x="430" y="340" width="75" height="75" fill="hsl(28,70%,91%)"/>
  <rect x="880" y="600" width="75" height="75" fill="hsl(29,65%,89%)"/>
</svg>
